<svg width="512" height="512" viewBox="0 0 512 512" fill="none" xmlns="http://www.w3.org/2000/svg">
<rect width="512" height="512" rx="64" fill="#FCFCFC"/>
<path fill-rule="evenodd" clip-rule="evenodd" d="M321.38 57.4093C334.682 52.2169 349.049 62.0143 349.049 76.2783V90.5506L359.332 86.5367C372.634 81.3443 387 91.1417 387 105.406V196.86C387 205.256 381.815 212.781 373.964 215.781L175.849 289.611L175.931 275.965L369.132 203.167C371.749 202.167 373.477 199.658 373.477 196.86V105.406C373.477 100.651 368.688 97.3852 364.254 99.116L349.049 105.051V167.733C349.049 176.128 343.864 183.654 336.012 186.654L176.076 249.526L176.156 235.064L331.18 174.04C333.797 173.04 335.526 170.531 335.526 167.733V110.33L180.775 170.736C178.181 171.749 176.474 174.245 176.474 177.026L174.948 459L162.951 448.147V177.026C162.951 168.684 168.072 161.194 175.852 158.157L335.526 95.8292V76.2783C335.526 71.5237 330.737 68.2579 326.303 69.9887L142.823 141.609C140.23 142.621 138.523 145.118 138.523 147.899V433.139L127.835 422.223L125 147.899C125 139.556 130.12 132.067 137.9 129.03L321.38 57.4093Z" fill="url(#paint0_linear_2_20)"/>
<defs>
<linearGradient id="paint0_linear_2_20" x1="387" y1="13.9176" x2="98.2157" y2="456.184" gradientUnits="userSpaceOnUse">
<stop stop-color="#8352EC"/>
<stop offset="0.5" stop-color="#5495CF"/>
<stop offset="1" stop-color="#7A52EC"/>
</linearGradient>
</defs>
</svg>